# xmcd
#
# Track frame offsets: 
#        150
#        20840
#        40223
#        60190
#        82093
#        104310
#        124628
#        146765
#        164833
#        186615
#        209398
#        230858
#
# Disc length: 3411 seconds
#
# Revision: 0
# Processed by: cddbd v1.5.2PL0 Copyright (c) Steve Scherf et al.
# Submitted via: ExactAudioCopy v1.0b3
#
DISCID=b60d510c
DTITLE=Thanh Tuyen - Rumba
DYEAR=1989
DGENRE=
TTITLE0=Xin thoi gian qua mau (Hai phuong troi cach biet)
TTITLE1=Bong nho duong chieu
TTITLE2=Nha anh nha em
TTITLE3=Mot chuyen bay dem
TTITLE4=Le bong
TTITLE5=Qua con me
TTITLE6=Ao anh
TTITLE7=Chieu cuoi tuan
TTITLE8=Xom dem
TTITLE9=Vong tay cho doi
TTITLE10=Chuyen tinh nguoi dan ao
TTITLE11=Thoi
EXTD=
EXTT0=
EXTT1=
EXTT2=
EXTT3=
EXTT4=
EXTT5=
EXTT6=
EXTT7=
EXTT8=
EXTT9=
EXTT10=
EXTT11=
PLAYORDER=
